<svg preserveAspectRatio="xMidYMid meet" overflow="visible" style="display: block;" viewBox="0 0 166 64" fill="none" xmlns="http://www.w3.org/2000/svg">
<g id="Frame 14">
<g id="Layer_1" clip-path="url(#clip0_0_60)">
<path id="Vector" d="M13.908 64C13.908 64 39.5584 43.5655 57.6215 37.2343C75.6846 30.9032 95.5549 30.362 107.656 35.0631C119.756 39.7642 131.137 45.33 141.795 47.972C152.453 50.614 164.014 53.3264 164.014 53.3264C164.014 53.3264 161.483 42.4767 162.75 36.6899C164.017 30.9032 166 23.669 166 23.669C166 23.669 128.61 10.648 113.618 4.49937C98.6257 -1.64924 63.2224 -3.27286 35.947 11.1956C8.67169 25.664 0 35.3673 0 35.3673L14.8132 46.0986L13.9112 64.0032L13.908 64Z" fill="var(--fill-0, #379947)"/>
<path id="Vector_2" d="M26.4341 48.5708L19.1474 28.0755C19.1474 28.0755 18.2454 26.8105 20.1103 25.363C21.9751 23.9155 23.0019 23.4928 25.5896 26.0868C28.1774 28.6807 39.1362 40.9747 39.1362 40.9747C39.1362 40.9747 39.9198 42.1212 39.1362 42.9026C38.3525 43.684 37.572 44.1675 36.0942 42.7232C34.6164 41.279 30.8867 37.2664 30.8867 37.2664L27.3489 40.3407L29.6808 46.912C29.6808 46.912 30.2629 48.5996 29.2042 49.2946C28.1454 49.9895 27.3937 50.108 26.4309 48.5708H26.4341Z" fill="var(--fill-0, white)"/>
<path id="Vector_3" d="M36.9706 33.5612C36.9706 33.5612 39.6799 38.7459 41.4872 38.8067C43.2945 38.8675 46.1829 37.119 46.9666 36.1839C47.7503 35.2488 47.2673 31.8735 43.7743 25.062C40.2813 18.2505 39.4848 16.9247 39.4848 16.9247C39.4848 16.9247 38.2341 13.9721 36.9706 14.3339C35.7071 14.6958 34.4277 15.253 35.7071 17.4083C36.9866 19.5635 43.9566 32.8855 43.9566 32.8855C43.9566 32.8855 44.8011 34.7365 43.6559 35.3705C42.5108 36.0046 41.1258 34.8613 40.1022 32.8855C39.0786 30.9096 38.4772 30.7879 37.4824 31.2106C36.4876 31.6333 36.3821 32.5172 36.9706 33.5612Z" fill="var(--fill-0, white)"/>
<path id="Vector_4" d="M56.7194 27.5919C56.7194 27.5919 55.3952 14.1482 55.3344 11.6183C55.2736 9.08842 54.9729 6.91719 60.9929 6.07175C67.0129 5.22632 67.5566 4.68511 68.5195 11.0163C69.4823 17.3474 70.7458 26.2085 70.7458 26.2085C70.7458 26.2085 71.7086 29.1611 69.4215 29.1611C67.1344 29.1611 67.4351 28.6199 66.3507 22.4104C65.2664 16.201 64.1244 8.6657 64.1244 8.6657L59.0673 9.62962C59.0673 9.62962 60.9929 23.0445 60.6314 26.5543C60.27 30.0641 59.1249 32.5364 56.4156 32.4147C53.7062 32.293 52.382 30.6662 53.284 28.7384C54.1861 26.8105 56.7162 27.5919 56.7162 27.5919H56.7194Z" fill="var(--fill-0, white)"/>
<path id="Vector_5" d="M25.9223 37.4169L29.2074 34.9766L24.3869 30.4004L25.9223 37.4169Z" fill="var(--fill-0, #379947)"/>
<g id="Group">
<path id="Vector_6" d="M72.2523 26.7945L76.0844 5.38003C76.0844 5.38003 75.9277 3.83327 78.2659 3.50343C80.6042 3.17358 81.7013 3.31769 82.6641 6.85314C83.6269 10.3886 87.0464 26.5095 87.0464 26.5095C87.0464 26.5095 87.1583 27.8929 86.09 28.1843C85.0216 28.4758 84.1036 28.5046 83.5406 26.5159C82.9776 24.5272 81.7237 19.192 81.7237 19.192L77.1304 20.1047L75.8989 26.9674C75.8989 26.9674 75.5662 28.7223 74.3059 28.7992C73.0456 28.8761 72.3291 28.6071 72.2555 26.7945H72.2523Z" fill="var(--fill-0, white)"/>
<path id="Vector_7" d="M77.3351 16.8574L81.3974 16.3707L79.4814 10.0011L77.3351 16.8574Z" fill="var(--fill-0, #379947)"/>
</g>
<path id="Vector_8" d="M88.0827 20.4762C88.0827 20.4762 87.6253 26.3077 89.1223 27.3229C90.6193 28.3349 93.9971 28.3925 95.1551 28.0178C96.313 27.6431 97.698 24.5272 98.357 16.8991C99.0159 9.27095 99.0447 7.72419 99.0447 7.72419C99.0447 7.72419 99.5533 4.55702 98.2898 4.18874C97.0263 3.82047 95.6477 3.61231 95.5869 6.11979C95.5261 8.62727 94.3554 23.6209 94.3554 23.6209C94.3554 23.6209 94.0867 25.6384 92.7816 25.5648C91.4766 25.4911 90.9104 23.7874 91.0927 21.5682C91.275 19.3489 90.8272 18.9262 89.7621 18.7565C88.6969 18.5867 88.1371 19.2785 88.0795 20.4762H88.0827Z" fill="var(--fill-0, white)"/>
<path id="Vector_9" d="M127.235 29.7183C127.235 29.7183 124.455 34.8645 125.415 36.3985C126.374 37.9325 129.436 39.3543 130.648 39.4824C131.86 39.6105 134.387 37.324 138.078 30.6182C141.77 23.9123 142.422 22.5097 142.422 22.5097C142.422 22.5097 144.169 19.8197 143.164 18.9742C142.157 18.1256 140.983 17.3762 139.911 19.6435C138.84 21.9108 131.697 35.14 131.697 35.14C131.697 35.14 130.635 36.8757 129.471 36.28C128.306 35.6844 128.479 33.8942 129.544 31.9408C130.61 29.9873 130.373 29.4205 129.468 28.8312C128.562 28.242 127.772 28.6487 127.235 29.7215V29.7183Z" fill="var(--fill-0, white)"/>
<path id="Vector_10" d="M98.5649 28.495C98.5649 28.495 102.838 10.1708 103.504 7.9996C104.169 5.82837 103.987 4.68511 105.973 4.98614C107.959 5.28717 108.382 5.88922 108.622 11.8585C108.862 17.8278 109.524 24.2774 109.524 24.2774L117.591 12.2812C117.591 12.2812 119.699 8.30383 121.324 9.14606C122.949 9.98829 123.131 10.5327 121.864 15.0545C120.598 19.5763 116.746 32.8855 116.746 32.8855C116.746 32.8855 116.641 34.1184 114.789 33.3498C112.937 32.5812 113.794 30.6822 115.061 26.2533C116.327 21.8244 116.823 19.698 116.823 19.698L111.36 28.2324C111.36 28.2324 110.275 30.6854 108.199 30.6854C106.123 30.6854 106.485 24.3575 106.303 21.5073C106.12 18.6572 105.401 15.1313 105.401 15.1313L102.557 25.7761C102.557 25.7761 101.7 29.3276 100.526 29.3276C99.3518 29.3276 98.3474 29.4493 98.5681 28.4982L98.5649 28.495Z" fill="var(--fill-0, white)"/>
<path id="Vector_11" d="M138.229 39.4856C138.229 39.4856 144.191 36.1583 144.236 33.5996C144.281 31.0409 144.687 21.6386 144.687 21.6386C144.687 21.6386 144.642 19.9221 146.402 19.9221C148.161 19.9221 148.116 21.6386 148.116 23.4032C148.116 25.1677 147.889 32.6261 147.889 32.6261L155.838 26.7048C155.838 26.7048 157.418 25.664 158.547 26.9322C159.676 28.2004 158.637 28.9561 157.645 29.7055C156.653 30.4548 140.167 42.0764 140.167 42.0764C140.167 42.0764 137.516 44.1547 136.012 42.0764C134.106 39.4344 136.012 38.1886 136.012 38.1886C136.012 38.1886 137.007 37.2151 138.226 39.4888L138.229 39.4856Z" fill="var(--fill-0, white)"/>
</g>
</g>
<defs>
<clipPath id="clip0_0_60">
<rect width="166" height="64" fill="white"/>
</clipPath>
</defs>
</svg>
