<svg preserveAspectRatio="none" width="100%" height="100%" overflow="visible" style="display: block;" viewBox="0 0 259 100" fill="none" xmlns="http://www.w3.org/2000/svg">
<g id="Layer_1" clip-path="url(#clip0_0_6)">
<path id="Vector" d="M21.6998 100C21.6998 100 61.7206 68.071 89.9034 58.1786C118.086 48.2862 149.089 47.4406 167.969 54.7861C186.849 62.1316 204.606 70.8281 221.235 74.9562C237.864 79.0843 255.901 83.3225 255.901 83.3225C255.901 83.3225 251.953 66.3698 253.929 57.328C255.906 48.2862 259 36.9827 259 36.9827C259 36.9827 200.663 16.6375 177.271 7.03027C153.88 -2.57693 98.6422 -5.11384 56.0861 17.4931C13.5299 40.1001 0 55.2614 0 55.2614L23.1122 72.029L21.7048 100.005L21.6998 100Z" fill="var(--fill-0, #379947)"/>
<path id="Vector_2" d="M41.2436 75.8919L29.8746 43.8679C29.8746 43.8679 28.4672 41.8914 31.3768 39.6297C34.2865 37.368 35.8885 36.7075 39.926 40.7606C43.9635 44.8136 61.0618 64.023 61.0618 64.023C61.0618 64.023 62.2846 65.8144 61.0618 67.0353C59.8391 68.2562 58.6214 69.0118 56.3156 66.7551C54.0099 64.4984 48.1907 58.2287 48.1907 58.2287L42.6709 63.0323L46.3092 73.3C46.3092 73.3 47.2175 75.9369 45.5656 77.0228C43.9136 78.1086 42.7408 78.2937 41.2386 75.8919H41.2436Z" fill="var(--fill-0, white)"/>
<path id="Vector_3" d="M57.6827 52.4393C57.6827 52.4393 61.9098 60.5404 64.7296 60.6355C67.5494 60.7305 72.056 57.9985 73.2788 56.5374C74.5015 55.0763 73.7479 49.8023 68.298 39.1594C62.8481 28.5164 61.6054 26.4448 61.6054 26.4448C61.6054 26.4448 59.654 21.8314 57.6827 22.3968C55.7113 22.9622 53.715 23.8329 55.7113 27.2004C57.7076 30.5679 68.5825 51.3835 68.5825 51.3835C68.5825 51.3835 69.9 54.2757 68.1133 55.2664C66.3266 56.2572 64.1656 54.4708 62.5686 51.3835C60.9716 48.2962 60.0333 48.1061 58.4812 48.7666C56.9291 49.4271 56.7644 50.8081 57.6827 52.4393Z" fill="var(--fill-0, white)"/>
<path id="Vector_4" d="M88.4956 43.1123C88.4956 43.1123 86.4295 22.1066 86.3346 18.1536C86.2398 14.2007 85.7707 10.8081 95.1633 9.48712C104.556 8.16613 105.404 7.32049 106.907 17.2129C108.409 27.1053 110.38 40.9507 110.38 40.9507C110.38 40.9507 111.882 45.5642 108.314 45.5642C104.746 45.5642 105.215 44.7185 103.523 35.0163C101.831 25.314 100.049 13.5402 100.049 13.5402L92.1588 15.0463C92.1588 15.0463 95.1633 36.007 94.5993 41.4911C94.0354 46.9752 92.2487 50.8381 88.0215 50.648C83.7943 50.4578 81.7282 47.9159 83.1356 44.9037C84.543 41.8914 88.4906 43.1123 88.4906 43.1123H88.4956Z" fill="var(--fill-0, white)"/>
<path id="Vector_5" d="M40.4454 58.4638L45.5709 54.651L38.0498 47.5006L40.4454 58.4638Z" fill="var(--fill-0, #379947)"/>
<g id="Group">
<path id="Vector_6" d="M112.731 41.8664L118.71 8.40632C118.71 8.40632 118.466 5.98951 122.114 5.47412C125.762 4.95873 127.474 5.1839 128.976 10.708C130.479 16.2322 135.814 41.4211 135.814 41.4211C135.814 41.4211 135.988 43.5827 134.321 44.038C132.655 44.4934 131.222 44.5384 130.344 41.4311C129.465 38.3238 127.509 29.9875 127.509 29.9875L120.342 31.4136L118.421 42.1366C118.421 42.1366 117.902 44.8787 115.936 44.9988C113.969 45.1189 112.851 44.6985 112.736 41.8664H112.731Z" fill="var(--fill-0, white)"/>
<path id="Vector_7" d="M120.662 26.3397L127 25.5792L124.011 15.6267L120.662 26.3397Z" fill="var(--fill-0, #379947)"/>
</g>
<path id="Vector_8" d="M137.43 31.994C137.43 31.994 136.716 41.1059 139.052 42.692C141.387 44.2732 146.658 44.3633 148.464 43.7779C150.271 43.1924 152.432 38.3238 153.46 26.4048C154.488 14.4859 154.533 12.0691 154.533 12.0691C154.533 12.0691 155.327 7.12036 153.355 6.54493C151.384 5.9695 149.233 5.64425 149.138 9.56219C149.043 13.4801 147.217 36.9077 147.217 36.9077C147.217 36.9077 146.797 40.0601 144.761 39.945C142.725 39.8299 141.842 37.1679 142.126 33.7003C142.411 30.2327 141.712 29.5722 140.05 29.307C138.388 29.0418 137.515 30.1226 137.425 31.994H137.43Z" fill="var(--fill-0, white)"/>
<path id="Vector_9" d="M198.517 46.4348C198.517 46.4348 194.18 54.4758 195.678 56.8726C197.175 59.2694 201.951 61.4911 203.843 61.6912C205.734 61.8914 209.677 58.3187 215.436 47.8409C221.195 37.363 222.213 35.1714 222.213 35.1714C222.213 35.1714 224.938 30.9682 223.371 29.6472C221.799 28.3212 219.968 27.1503 218.296 30.693C216.624 34.2356 205.479 54.9062 205.479 54.9062C205.479 54.9062 203.823 57.6182 202.006 56.6875C200.189 55.7568 200.459 52.9597 202.121 49.9074C203.783 46.8551 203.413 45.9694 202.001 45.0488C200.589 44.1281 199.356 44.7635 198.517 46.4398V46.4348Z" fill="var(--fill-0, white)"/>
<path id="Vector_10" d="M153.785 44.5234C153.785 44.5234 160.453 15.8919 161.491 12.4994C162.529 9.10683 162.244 7.32049 165.344 7.79084C168.443 8.2612 169.102 9.2019 169.476 18.5289C169.85 27.8559 170.883 37.9334 170.883 37.9334L183.47 19.1894C183.47 19.1894 186.759 12.9747 189.294 14.2907C191.829 15.6067 192.114 16.4573 190.138 23.5226C188.161 30.5879 182.152 51.3835 182.152 51.3835C182.152 51.3835 181.988 53.31 179.098 52.1091C176.208 50.9082 177.546 47.941 179.522 41.0208C181.499 34.1006 182.272 30.7781 182.272 30.7781L173.748 44.1131C173.748 44.1131 172.056 47.946 168.817 47.946C165.578 47.946 166.142 38.0585 165.858 33.6052C165.573 29.1519 164.45 23.6427 164.45 23.6427L160.013 40.2752C160.013 40.2752 158.676 45.8244 156.844 45.8244C155.013 45.8244 153.446 46.0145 153.79 44.5284L153.785 44.5234Z" fill="var(--fill-0, white)"/>
<path id="Vector_11" d="M215.67 61.6963C215.67 61.6963 224.973 56.4974 225.043 52.4994C225.113 48.5014 225.747 33.8104 225.747 33.8104C225.747 33.8104 225.677 31.1283 228.422 31.1283C231.167 31.1283 231.097 33.8104 231.097 36.5674C231.097 39.3245 230.742 50.9782 230.742 50.9782L243.144 41.7263C243.144 41.7263 245.61 40.1001 247.372 42.0816C249.133 44.063 247.511 45.2439 245.964 46.4148C244.417 47.5857 218.695 65.7443 218.695 65.7443C218.695 65.7443 214.557 68.9917 212.212 65.7443C209.237 61.6162 212.212 59.6698 212.212 59.6698C212.212 59.6698 213.764 58.1486 215.665 61.7013L215.67 61.6963Z" fill="var(--fill-0, white)"/>
</g>
<defs>
<clipPath id="clip0_0_6">
<rect width="259" height="100" fill="white"/>
</clipPath>
</defs>
</svg>
