<svg preserveAspectRatio="none" width="100%" height="100%" overflow="visible" style="display: block;" viewBox="0 0 54 32" fill="none" xmlns="http://www.w3.org/2000/svg">
<path id="path1409" d="M3.13802 31.9193C1.52225 31.531 0.478147 30.0834 0.103251 27.7116C-0.0361951 26.8294 -0.0340049 24.5937 0.107458 23.414C0.503271 20.1132 1.42767 17.0007 2.84837 14.1854C4.68695 10.5421 7.21958 7.76915 9.34307 7.07447C10.288 6.76534 10.9546 6.77061 11.6485 7.09272C12.5965 7.53271 13.1132 8.55357 13.2355 10.2278C13.282 10.8646 13.1897 11.901 13.0373 12.4537C12.8578 13.1045 12.3658 14.0475 11.9216 14.5919C11.3235 15.325 10.4418 15.9277 9.87467 15.9911C9.66682 16.0144 9.61358 15.996 9.46705 15.8507C9.21706 15.6027 9.14923 15.2849 9.22742 14.728C9.26284 14.4757 9.35684 14.0827 9.43632 13.8545C10.2292 11.5789 9.63971 9.51605 8.35732 10.0787C7.27102 10.5553 5.91299 12.9363 5.05818 15.8629C4.51127 17.7354 4.17534 19.639 4.05409 21.5529C3.86047 24.609 4.49195 26.5764 5.8682 27.2049C6.29009 27.3975 7.02906 27.4407 7.60724 27.3065C8.08299 27.1961 8.80651 26.8665 9.29605 26.5374C9.64778 26.3008 10.7308 25.3046 10.8227 25.1331C10.8477 25.0864 10.8333 24.8707 10.7907 24.6537C10.5804 23.5828 10.6463 22.2902 11 20.5476C11.7414 16.8957 13.5594 13.9079 15.7663 12.7146C16.7387 12.1888 17.6254 12.245 18.3122 12.8762C19.3001 13.7841 19.7052 15.5744 19.4284 17.8087C18.8869 22.1787 17.0024 25.7473 14.6012 26.9499C13.6157 27.4435 12.7323 27.4474 12.02 26.9614C11.8597 26.852 11.7066 26.7759 11.6798 26.7923C11.6531 26.8088 11.4571 27.0658 11.2443 27.3636C9.49053 29.8176 7.24519 31.4729 5.06401 31.9198C4.54101 32.0269 3.58482 32.0268 3.13802 31.9193ZM15.2068 24.1486C15.8626 23.7067 16.4385 22.1549 16.7971 19.8639C16.9081 19.1544 16.893 17.5368 16.77 16.9668C16.5887 16.127 16.2042 15.4726 15.7545 15.2384C15.4963 15.104 15.4364 15.1389 15.2311 15.5432C14.5016 16.9801 13.9496 19.6769 13.9488 21.808C13.9483 23.029 14.1042 23.7232 14.4575 24.0736C14.7161 24.3301 14.9089 24.3494 15.2068 24.1486ZM22.2299 23.9501C21.2701 23.7808 20.5589 23.0188 20.2529 21.832C19.7191 19.7616 20.2941 16.3604 21.6203 13.7441C22.7346 11.5459 24.2983 10.0612 25.8628 9.71596C27.2666 9.40617 28.0442 10.1286 28.0515 11.7493C28.0562 12.7832 27.8313 13.6768 27.3188 14.6615C26.4388 16.3521 24.6651 16.8945 24.8199 15.4256C24.8527 15.114 24.9276 14.8994 25.3936 13.7815C25.6438 13.1812 25.6832 12.7572 25.5068 12.5639C25.2281 12.2584 24.6488 12.626 24.266 13.3513C23.6958 14.4317 23.2464 16.3667 23.1701 18.0703C23.1012 19.6092 23.3952 20.5134 24.0765 20.8582C24.2721 20.9572 24.3829 20.9719 24.7776 20.9513C25.7421 20.9011 26.5187 20.3237 27.3951 19.0052C27.8328 18.3468 27.8565 18.2947 27.9198 17.85C28.2549 15.4972 29.1118 10.4031 29.6268 7.70235C30.125 5.08993 30.6179 2.99478 30.8727 2.40631C31.3125 1.39022 32.9065 0 33.6316 0C33.9048 0 34.1443 0.22892 34.1974 0.540802C34.2413 0.798488 34.2286 0.859589 33.4915 3.9446C32.1808 9.43031 31.2735 14.0087 31.5546 13.7187C31.5831 13.6893 31.8351 13.2214 32.1145 12.6791C33.7846 9.43742 35.6015 7.15941 36.5186 7.15715C36.8203 7.15645 37.12 7.32502 37.4461 7.67899C37.8381 8.10444 38.0973 8.60864 38.1348 9.01874C38.1606 9.3011 38.1425 9.39597 38.0123 9.6598C37.8245 10.0406 37.6341 10.1919 36.7294 10.679C35.959 11.0938 35.2059 11.5728 34.9473 11.8124L34.7843 11.9635L34.8234 12.5889C34.9701 14.9326 35.5133 16.8708 36.2135 17.549C36.3845 17.7147 36.4927 17.7698 36.6897 17.7918C36.9266 17.8183 36.9626 17.8039 37.1983 17.5884C37.3378 17.4608 37.5366 17.1979 37.64 17.0041C37.7435 16.8104 37.8853 16.561 37.9552 16.4499C38.0272 16.3356 38.0991 16.1034 38.1211 15.9146C38.2343 14.9404 38.6778 12.4365 39.142 10.1507C39.2828 9.45743 39.384 8.86785 39.367 8.84052C39.35 8.81318 39.1961 8.79082 39.0251 8.79082C38.2562 8.79082 37.976 8.36926 38.4195 7.87983C38.5367 7.75053 38.8627 7.49816 39.1439 7.319C39.4251 7.13984 39.6945 6.95937 39.7424 6.91796C39.7926 6.87463 39.9091 6.48461 40.0167 5.99941C40.3762 4.37802 40.7549 2.98215 40.9033 2.73094C41.2616 2.12444 41.9828 1.46498 42.6586 1.12587C43.1415 0.883556 43.3927 0.848823 43.6623 0.987104C44.1137 1.21864 44.1009 1.65689 43.5808 3.77554C43.3784 4.60006 43.2358 5.29087 43.2624 5.318C43.2896 5.34569 43.6288 5.21929 44.0395 5.02845C44.6662 4.7372 45.1174 4.56595 45.2613 4.56478C45.3752 4.5639 45.4784 4.76517 45.4784 4.98821C45.4784 5.57504 44.8835 6.96897 44.49 7.30438C44.1955 7.55532 43.5912 7.84367 43.0153 8.00805C42.6931 8.1 42.5551 8.1678 42.5191 8.25181C42.437 8.44337 41.7465 11.7386 41.5913 12.6791C41.3311 14.2573 41.265 15.4203 41.3938 16.1545C41.5583 17.0911 42.1706 17.2638 42.8701 16.5709L43.1875 16.2565L43.1868 15.2989C43.185 13.017 43.8567 10.5987 44.9413 8.98177C46.0486 7.33112 47.6929 6.4047 49.0878 6.64564C49.6624 6.74488 50.0348 6.97148 50.2288 7.33977C50.3353 7.54211 50.4207 7.5353 50.7538 7.2979C51.4585 6.79574 52.2333 6.63793 52.5541 6.93122C52.9207 7.26638 52.943 7.6094 52.6612 8.57499C52.5496 8.95713 52.3725 9.56678 52.2675 9.92975C51.5262 12.4928 51.197 15.5399 51.5817 16.2778C51.7033 16.511 51.9449 16.597 52.1891 16.4938C52.4194 16.3966 52.5504 16.261 52.9065 15.7511C53.2377 15.2769 53.4235 15.13 53.6278 15.1809C53.8278 15.2307 53.9997 15.525 54 15.8181C54.0007 16.5528 53.1886 17.8368 52.3754 18.3867C51.8616 18.7342 51.417 18.8877 50.826 18.9216C49.9729 18.9706 49.3811 18.755 48.8821 18.2134C48.7286 18.0469 48.6031 17.8873 48.6031 17.8588C48.6031 17.7429 48.4381 17.8222 48.1177 18.0922C47.4403 18.663 46.7607 18.9842 45.9898 19.0978C45.059 19.2349 44.3252 18.9102 43.8208 18.1381C43.7221 17.987 43.6322 17.8634 43.6211 17.8634C43.61 17.8634 43.3395 18.1235 43.0199 18.4413C42.1462 19.3106 41.4728 19.6457 40.4759 19.7073C39.5149 19.7667 38.8116 19.3925 38.41 18.6082C38.3579 18.5065 38.2907 18.4383 38.2607 18.4567C38.2306 18.4752 38.104 18.6392 37.9793 18.8213C37.457 19.5843 36.68 20.2339 35.9513 20.5169C35.6948 20.6165 35.5017 20.6458 35.0819 20.6488C34.5863 20.6524 34.5174 20.6392 34.2388 20.4861C33.3733 20.0105 32.7863 18.8462 32.2774 16.5955C32.1446 16.0079 32.0625 15.7502 32.0082 15.7502C31.9135 15.7502 31.5874 16.5109 31.2821 17.4443C31.0558 18.136 30.8715 18.9555 30.7678 19.7313C30.7361 19.9683 30.6584 20.298 30.5952 20.4639C30.4528 20.8376 30.064 21.3571 29.7088 21.6483C29.1744 22.0863 28.1344 22.563 27.7867 22.5294C27.5572 22.5072 27.4767 22.2827 27.4723 21.653C27.4705 21.3973 27.4539 21.1881 27.4354 21.1881C27.4169 21.1881 27.1576 21.4427 26.8593 21.7539C26.158 22.4855 25.3555 23.0823 24.5537 23.4686C23.6532 23.9024 22.8742 24.0638 22.2299 23.9501ZM47.2112 16.5183C47.5123 16.3821 47.818 16.0609 48.0401 15.6474C48.1802 15.3867 48.2324 15.2008 48.2707 14.8259C48.2979 14.5594 48.4358 13.7075 48.5771 12.9326C48.7183 12.1578 48.8601 11.2688 48.8921 10.957C48.9843 10.057 48.8419 9.25179 48.5517 9.0321C48.4278 8.93831 48.063 8.94259 47.8729 9.04008C47.3001 9.3339 46.7415 10.4129 46.4255 11.836C46.2038 12.8341 46.1365 13.4651 46.134 14.5668C46.1314 15.749 46.2097 16.1206 46.5283 16.4366C46.7432 16.6498 46.8836 16.6666 47.2112 16.5183Z" fill="var(--fill-0, #2E81A3)"/>
</svg>
