<svg preserveAspectRatio="none" width="100%" height="100%" overflow="visible" style="display: block;" viewBox="0 0 85 20" fill="none" xmlns="http://www.w3.org/2000/svg">
<path id="Vector" d="M0 10.8739C0.174151 10.8578 0.406324 10.8337 0.696575 10.8014C0.97957 10.7692 1.49468 10.8012 2.24208 10.89C2.99673 10.9787 3.65711 11.1401 4.2231 11.3821C4.79635 11.6161 5.31877 12.0676 5.79043 12.721C6.26209 13.3744 6.50889 14.1973 6.53066 15.1894C6.54517 16.2381 6.30571 17.1173 5.80503 17.811L5.88482 18.0448C6.74106 17.5689 7.25628 16.6575 7.43769 15.3104C7.6191 13.9633 7.40867 12.8825 6.82091 12.0678V0.460011H13.5111V11.9789C13.5111 14.7296 12.8654 16.7302 11.5738 17.9563C10.2822 19.1824 8.39552 19.8034 5.91387 19.8034H0.0216838C0.0216838 15.8347 0.0145126 12.8582 0 10.8739ZM24.7512 10.0108V0.460011H31.4197V19.8034H24.7512V13.0436H24.4028C24.3883 13.9632 24.3012 14.8023 24.1416 15.5767C23.9747 16.3511 23.728 17.0768 23.3869 17.7625C23.0531 18.4481 22.5742 18.9807 21.9719 19.3679C21.3624 19.7551 20.644 19.9407 19.8023 19.9165C18.859 19.9003 18.0681 19.6904 17.4368 19.2951C16.7982 18.8999 16.3266 18.3433 16.0001 17.6254C15.6808 16.9156 15.4558 16.1653 15.3324 15.3829C15.2091 14.6005 15.1438 13.689 15.1438 12.6646V0.460011H21.7035V9.98658C21.7035 10.519 21.805 10.9627 22.0082 11.3257C22.2187 11.6807 22.4726 11.8982 22.7701 11.995C23.0749 12.0837 23.3796 12.0839 23.6844 12.0032C23.9892 11.9306 24.2431 11.7046 24.4463 11.3497C24.6495 10.9948 24.7512 10.5513 24.7512 10.0108ZM32.9943 19.7712V0.436064H45.0106C46.4256 0.436064 47.5358 0.895661 48.3558 1.81523C49.1757 2.73481 49.6185 3.8319 49.6693 5.1064C49.7055 6.25183 49.5024 7.252 49.0525 8.10704C48.6098 8.96209 48.0293 9.58333 47.3182 9.97051C46.5998 10.3577 45.8016 10.6238 44.909 10.769C44.0165 10.9222 43.1458 10.8578 42.3114 10.5755L42.1735 10.8739C42.783 11.4305 43.5304 11.7855 44.4085 11.9307C45.2937 12.084 46.1426 12.0678 46.9698 11.8904C47.7898 11.7049 48.5445 11.4304 49.2411 11.0513V19.384C48.4357 19.7631 47.6157 19.9649 46.7812 19.9971C45.9395 20.0213 45.1704 19.8923 44.481 19.5938C43.7844 19.2954 43.2184 18.7468 42.7903 17.9563C42.3621 17.1658 42.1662 16.1817 42.2025 15.012C42.2243 14.4958 42.188 13.9875 42.1081 13.4955C42.0283 12.9954 41.8978 12.5196 41.7236 12.0517C41.5422 11.5839 41.2665 11.2047 40.8892 10.9224C40.5191 10.632 40.0765 10.4866 39.583 10.4866V19.7712H32.9943ZM37.9721 2.9042C37.9721 3.39625 38.1317 3.81583 38.4437 4.16269C38.7557 4.51761 39.1331 4.68701 39.583 4.68701V9.68819C40.5046 9.60753 41.2519 9.14774 41.8034 8.3169C42.3549 7.48606 42.6524 6.57436 42.6814 5.58219C42.7177 4.59002 42.5 3.65444 42.0283 2.76713C41.5567 1.88789 40.8674 1.35557 39.9531 1.17811C39.4524 1.08131 39.0024 1.19412 38.5888 1.53291C38.1825 1.8717 37.9721 2.32342 37.9721 2.9042ZM67.0118 14.8586V19.7712H60.3505V14.8586C60.3505 13.8503 60.0747 12.9713 59.516 12.213C58.9645 11.4629 58.2171 11.0514 57.2738 10.9949V19.8034H50.6851V0.436064H57.2738V9.98658C58.2171 9.90592 58.8919 9.38973 59.3055 8.43789C59.7119 7.48606 59.9006 6.40522 59.8643 5.19525C59.8281 4.02562 60.024 3.03326 60.4448 2.21855C60.8585 1.40385 61.4171 0.831255 62.0992 0.492466C62.7885 0.153676 63.5578 -0.00777866 64.3995 0.000287767C65.2485 0.00835419 66.0901 0.201885 66.9319 0.581007V8.67169C66.3804 8.30064 65.7274 8.05858 64.98 7.96179C63.9787 7.82466 62.9627 7.95378 61.925 8.34904C60.8946 8.74429 60.0456 9.3574 59.3853 10.1882C60.227 9.77686 61.0905 9.56719 61.9976 9.56719C62.8974 9.56719 63.7173 9.75272 64.4575 10.1318C65.1976 10.511 65.8072 11.1079 66.2934 11.9307C66.7723 12.7535 67.0118 13.7293 67.0118 14.8586ZM85 19.8034H73.4916C71.5251 19.8034 70.1319 18.9968 69.312 17.3916C68.6009 16.0203 68.492 14.5442 68.9927 12.9551C69.5079 11.3499 70.502 10.2526 71.9605 9.65573C72.6063 9.38148 73.3174 9.23634 74.1011 9.23634H78.2807V6.4131C78.3315 4.1303 77.5987 2.54121 76.0821 1.6539L75.9007 1.9523C76.4522 2.56535 76.7278 3.38825 76.7278 4.42075C76.7061 5.29192 76.4812 6.02603 76.0459 6.62295C75.6105 7.21986 75.0807 7.61499 74.4639 7.82472C73.8471 8.03445 73.2376 8.17964 72.6208 8.26837C72.004 8.36517 71.4816 8.38937 71.0535 8.34904L70.4149 8.28444L70.4367 0.460011H77.5043C79.8771 0.460011 81.7202 1.12971 83.0336 2.46874C84.3397 3.80777 85 5.76778 85 8.34904V19.8034ZM78.3316 15.3104V10.0994C77.5624 10.4382 76.9383 10.995 76.4594 11.7694C75.9805 12.5438 75.7265 13.4148 75.712 14.3828C75.6902 15.2782 75.9006 16.2138 76.3287 17.1818C76.7569 18.1578 77.3447 18.6419 78.0921 18.6419C78.5057 18.6419 78.854 18.4805 79.1515 18.1497C79.4417 17.819 79.5941 17.432 79.5941 16.9722C79.5941 16.5608 79.4707 16.1977 79.2313 15.8911C78.9918 15.5846 78.6871 15.3911 78.3316 15.3104Z" fill="var(--fill-0, #2E81A3)"/>
</svg>
