<svg preserveAspectRatio="xMidYMid meet" overflow="visible" style="display: block;" viewBox="0 0 70.1384 68.3836" fill="none" xmlns="http://www.w3.org/2000/svg">
<g id="Group">
<path id="Vector" d="M32.8328 68.3836C23.7311 68.3836 14.9604 65.0959 7.8446 58.8493C7.67912 58.6849 -5.72514 46.3562 2.88006 27.6164C3.04555 27.2877 3.21103 26.9589 3.37652 26.6301C3.542 26.137 3.70748 25.8082 3.87297 25.3151C10.6578 11.1781 27.2063 0 41.769 0C48.3883 0 54.1803 2.13699 58.9794 6.41096C69.7359 16.274 74.7004 37.6438 64.7713 52.6027L64.6058 52.9315L64.4403 53.0959C63.282 54.0822 63.282 54.9041 63.1165 56.3836C63.1165 57.3699 62.951 58.6849 62.4545 60C60.9652 63.2877 58.1519 63.7808 56.3316 63.7808C55.8351 63.7808 55.1732 63.7808 54.6768 63.7808C54.1803 63.7808 53.6838 63.7808 53.1874 63.7808C52.5254 63.7808 52.1945 63.7808 51.698 63.9452C45.7406 66.7397 39.2867 68.3836 32.8328 68.3836Z" fill="var(--fill-0, white)"/>
<path id="Vector_2" d="M57.821 7.72603C40.9415 -7.23288 13.9675 8.05479 5.52782 26.137C5.19685 26.9589 4.86588 27.6164 4.53491 28.4384C-3.40835 45.5342 8.01009 56.8767 9.00299 57.6986C21.4143 68.3836 37.3009 69.2055 51.2016 62.137C54.3458 60.9863 58.8139 63.7808 60.9652 59.3425C62.1236 56.5479 60.4687 54.0822 63.4474 51.7808C72.5491 37.9726 68.5775 17.589 57.821 7.72603Z" fill="var(--fill-0, white)"/>
<path id="Vector_3" d="M57.821 7.72603C40.9415 -7.23288 13.9675 8.05479 5.52782 26.137C5.19685 26.9589 4.86588 27.6164 4.53491 28.4384C-3.40835 45.5342 8.01009 56.8767 9.00299 57.6986C21.4143 68.3836 37.3009 69.2055 51.2016 62.137C54.3458 60.9863 58.8139 63.7808 60.9652 59.3425C62.1236 56.5479 60.4687 54.0822 63.4474 51.7808C72.5491 37.9726 68.5775 17.589 57.821 7.72603Z" fill="var(--fill-0, white)"/>
<path id="Vector_4" d="M63.4474 51.7808C60.4687 54.0822 62.1236 56.5479 60.9652 59.3425C58.8139 63.7808 54.5113 61.1507 51.2016 62.137C37.3009 69.2055 21.4143 68.2192 9.00299 57.6986C8.01009 56.8767 -3.40835 45.5342 4.53491 28.4384C4.86588 27.7808 5.19685 26.9589 5.52782 26.137C13.9675 8.05479 40.9415 -7.23288 57.821 7.72603C68.5775 17.589 72.5491 37.9726 63.4474 51.7808ZM9.66493 52.9315C32.9983 72.3288 74.8659 31.2329 55.8351 9.53425C33.6602 -12.8219 -12.3445 30.411 9.66493 52.9315Z" fill="var(--fill-0, #AABD37)"/>
<path id="Vector_5" d="M37.7973 31.3973C35.646 31.726 35.8115 33.3699 36.6389 34.5205C36.8044 34.6849 44.0857 42.7397 45.5751 42.5753C47.2299 43.0685 48.3883 42.5753 49.3812 41.589C50.5396 40.4384 56.6626 31.5616 55.0077 29.7534C53.3529 28.1096 38.1283 31.5616 37.7973 31.3973Z" fill="var(--fill-0, #AABD37)"/>
<path id="Vector_6" d="M30.185 8.54795C17.1117 15.7808 17.1117 15.4521 27.5373 25.8082C30.185 28.274 31.3434 26.6301 31.8399 24.1644C32.1708 22.5205 33.4947 14.9589 33.9912 12.6575C34.3221 9.86301 33.9912 7.72603 30.185 8.54795Z" fill="var(--fill-0, #AABD37)"/>
<path id="Vector_7" d="M37.9628 29.2603C43.4238 28.9315 56.4971 29.2603 56.8281 22.5205C56.8281 22.0274 56.0006 17.0959 55.1732 15.4521C54.6768 14.4658 53.8493 13.8082 52.36 13.9726C47.5609 16.1096 44.4167 21.0411 40.2796 24.3288C39.4522 25.4795 34.6531 28.4384 37.9628 29.2603Z" fill="var(--fill-0, #AABD37)"/>
<path id="Vector_8" d="M29.5231 50.9589C29.8541 56.3836 41.2725 49.4795 42.9273 47.0137C43.4238 45.6986 43.0928 44.5479 42.2654 43.5616C40.9415 41.7534 36.1425 37.3151 35.646 36.9863C33.3292 34.8493 32.1708 36 31.5089 38.137C30.847 40.1096 29.5231 50.6301 29.5231 50.9589Z" fill="var(--fill-0, #AABD37)"/>
<path id="Vector_9" d="M42.2654 7.39726C34.4876 5.75343 35.3151 20.7123 34.3221 25.4795C34.8186 26.3014 35.646 26.3014 36.9699 25.3151C39.2867 23.3425 46.568 15.7808 47.7264 14.6301C50.8706 11.0137 51.2016 8.38356 42.2654 7.39726Z" fill="var(--fill-0, #AABD37)"/>
<path id="Vector_10" d="M14.795 50.137C14.2985 53.7534 24.2276 53.9178 25.2205 53.7534C27.5373 53.0959 28.1992 44.5479 29.0266 40.274C29.6886 36.9863 29.1921 35.8356 27.8682 36.6575C25.5515 38.137 23.7311 40.4384 21.5798 42.411C19.4285 44.8767 15.6224 46.8493 14.795 50.137Z" fill="var(--fill-0, #AABD37)"/>
<path id="Vector_11" d="M25.2205 33.3699C20.5869 34.0274 11.4853 33.6986 8.17557 36.8219C6.52072 38.3014 8.34106 47.0137 11.4853 47.3425C14.133 47.0137 20.7524 40.274 24.5586 36.8219C26.8753 35.0137 26.3789 33.6986 25.2205 33.3699Z" fill="var(--fill-0, #AABD37)"/>
<path id="Vector_12" d="M12.8091 32.8767C26.5444 30.9041 33.4947 33.3699 18.7666 20.5479C15.9533 18.2466 13.3056 21.5342 12.3127 23.8356C11.3198 26.137 6.68621 31.3973 10.1614 33.0411C10.4924 32.8767 12.3127 32.8767 12.8091 32.8767Z" fill="var(--fill-0, #AABD37)"/>
</g>
</svg>
