<svg preserveAspectRatio="xMidYMid meet" overflow="visible" style="display: block;" viewBox="0 0 72 72" fill="none" xmlns="http://www.w3.org/2000/svg">
<g id="QR Code">
<rect width="72" height="72" fill="white"/>
<path id="Vector" d="M4.08511 4.08511H6.28613V6.28613H4.08511V4.08511ZM6.28613 4.08511H8.48716V6.28613H6.28613V4.08511ZM8.48716 4.08511H10.6882V6.28613H8.48716V4.08511ZM10.6882 4.08511H12.8892V6.28613H10.6882V4.08511ZM12.8892 4.08511H15.0902V6.28613H12.8892V4.08511ZM15.0902 4.08511H17.2913V6.28613H15.0902V4.08511ZM17.2913 4.08511H19.4923V6.28613H17.2913V4.08511ZM28.2964 4.08511H30.4974V6.28613H28.2964V4.08511ZM32.6985 4.08511H34.8995V6.28613H32.6985V4.08511ZM34.8995 4.08511H37.1005V6.28613H34.8995V4.08511ZM37.1005 4.08511H39.3015V6.28613H37.1005V4.08511ZM43.7036 4.08511H45.9046V6.28613H43.7036V4.08511ZM45.9046 4.08511H48.1056V6.28613H45.9046V4.08511ZM52.5077 4.08511H54.7087V6.28613H52.5077V4.08511ZM54.7087 4.08511H56.9098V6.28613H54.7087V4.08511ZM56.9098 4.08511H59.1108V6.28613H56.9098V4.08511ZM59.1108 4.08511H61.3118V6.28613H59.1108V4.08511ZM61.3118 4.08511H63.5128V6.28613H61.3118V4.08511ZM63.5128 4.08511H65.7139V6.28613H63.5128V4.08511ZM65.7139 4.08511H67.9149V6.28613H65.7139V4.08511ZM4.08511 6.28613H6.28613V8.48716H4.08511V6.28613ZM17.2913 6.28613H19.4923V8.48716H17.2913V6.28613ZM21.6933 6.28613H23.8944V8.48716H21.6933V6.28613ZM26.0954 6.28613H28.2964V8.48716H26.0954V6.28613ZM30.4974 6.28613H32.6985V8.48716H30.4974V6.28613ZM32.6985 6.28613H34.8995V8.48716H32.6985V6.28613ZM37.1005 6.28613H39.3015V8.48716H37.1005V6.28613ZM52.5077 6.28613H54.7087V8.48716H52.5077V6.28613ZM65.7139 6.28613H67.9149V8.48716H65.7139V6.28613ZM4.08511 8.48716H6.28613V10.6882H4.08511V8.48716ZM8.48716 8.48716H10.6882V10.6882H8.48716V8.48716ZM10.6882 8.48716H12.8892V10.6882H10.6882V8.48716ZM12.8892 8.48716H15.0902V10.6882H12.8892V8.48716ZM17.2913 8.48716H19.4923V10.6882H17.2913V8.48716ZM21.6933 8.48716H23.8944V10.6882H21.6933V8.48716ZM26.0954 8.48716H28.2964V10.6882H26.0954V8.48716ZM30.4974 8.48716H32.6985V10.6882H30.4974V8.48716ZM37.1005 8.48716H39.3015V10.6882H37.1005V8.48716ZM39.3015 8.48716H41.5026V10.6882H39.3015V8.48716ZM43.7036 8.48716H45.9046V10.6882H43.7036V8.48716ZM45.9046 8.48716H48.1056V10.6882H45.9046V8.48716ZM52.5077 8.48716H54.7087V10.6882H52.5077V8.48716ZM56.9098 8.48716H59.1108V10.6882H56.9098V8.48716ZM59.1108 8.48716H61.3118V10.6882H59.1108V8.48716ZM61.3118 8.48716H63.5128V10.6882H61.3118V8.48716ZM65.7139 8.48716H67.9149V10.6882H65.7139V8.48716ZM4.08511 10.6882H6.28613V12.8892H4.08511V10.6882ZM8.48716 10.6882H10.6882V12.8892H8.48716V10.6882ZM10.6882 10.6882H12.8892V12.8892H10.6882V10.6882ZM12.8892 10.6882H15.0902V12.8892H12.8892V10.6882ZM17.2913 10.6882H19.4923V12.8892H17.2913V10.6882ZM23.8944 10.6882H26.0954V12.8892H23.8944V10.6882ZM26.0954 10.6882H28.2964V12.8892H26.0954V10.6882ZM34.8995 10.6882H37.1005V12.8892H34.8995V10.6882ZM39.3015 10.6882H41.5026V12.8892H39.3015V10.6882ZM41.5026 10.6882H43.7036V12.8892H41.5026V10.6882ZM52.5077 10.6882H54.7087V12.8892H52.5077V10.6882ZM56.9098 10.6882H59.1108V12.8892H56.9098V10.6882ZM59.1108 10.6882H61.3118V12.8892H59.1108V10.6882ZM61.3118 10.6882H63.5128V12.8892H61.3118V10.6882ZM65.7139 10.6882H67.9149V12.8892H65.7139V10.6882ZM4.08511 12.8892H6.28613V15.0902H4.08511V12.8892ZM8.48716 12.8892H10.6882V15.0902H8.48716V12.8892ZM10.6882 12.8892H12.8892V15.0902H10.6882V12.8892ZM12.8892 12.8892H15.0902V15.0902H12.8892V12.8892ZM17.2913 12.8892H19.4923V15.0902H17.2913V12.8892ZM23.8944 12.8892H26.0954V15.0902H23.8944V12.8892ZM28.2964 12.8892H30.4974V15.0902H28.2964V12.8892ZM32.6985 12.8892H34.8995V15.0902H32.6985V12.8892ZM37.1005 12.8892H39.3015V15.0902H37.1005V12.8892ZM39.3015 12.8892H41.5026V15.0902H39.3015V12.8892ZM45.9046 12.8892H48.1056V15.0902H45.9046V12.8892ZM52.5077 12.8892H54.7087V15.0902H52.5077V12.8892ZM56.9098 12.8892H59.1108V15.0902H56.9098V12.8892ZM59.1108 12.8892H61.3118V15.0902H59.1108V12.8892ZM61.3118 12.8892H63.5128V15.0902H61.3118V12.8892ZM65.7139 12.8892H67.9149V15.0902H65.7139V12.8892ZM4.08511 15.0902H6.28613V17.2913H4.08511V15.0902ZM17.2913 15.0902H19.4923V17.2913H17.2913V15.0902ZM32.6985 15.0902H34.8995V17.2913H32.6985V15.0902ZM34.8995 15.0902H37.1005V17.2913H34.8995V15.0902ZM37.1005 15.0902H39.3015V17.2913H37.1005V15.0902ZM39.3015 15.0902H41.5026V17.2913H39.3015V15.0902ZM43.7036 15.0902H45.9046V17.2913H43.7036V15.0902ZM45.9046 15.0902H48.1056V17.2913H45.9046V15.0902ZM48.1056 15.0902H50.3067V17.2913H48.1056V15.0902ZM52.5077 15.0902H54.7087V17.2913H52.5077V15.0902ZM65.7139 15.0902H67.9149V17.2913H65.7139V15.0902ZM4.08511 17.2913H6.28613V19.4923H4.08511V17.2913ZM6.28613 17.2913H8.48716V19.4923H6.28613V17.2913ZM8.48716 17.2913H10.6882V19.4923H8.48716V17.2913ZM10.6882 17.2913H12.8892V19.4923H10.6882V17.2913ZM12.8892 17.2913H15.0902V19.4923H12.8892V17.2913ZM15.0902 17.2913H17.2913V19.4923H15.0902V17.2913ZM17.2913 17.2913H19.4923V19.4923H17.2913V17.2913ZM21.6933 17.2913H23.8944V19.4923H21.6933V17.2913ZM26.0954 17.2913H28.2964V19.4923H26.0954V17.2913ZM30.4974 17.2913H32.6985V19.4923H30.4974V17.2913ZM34.8995 17.2913H37.1005V19.4923H34.8995V17.2913ZM39.3015 17.2913H41.5026V19.4923H39.3015V17.2913ZM43.7036 17.2913H45.9046V19.4923H43.7036V17.2913ZM48.1056 17.2913H50.3067V19.4923H48.1056V17.2913ZM52.5077 17.2913H54.7087V19.4923H52.5077V17.2913ZM54.7087 17.2913H56.9098V19.4923H54.7087V17.2913ZM56.9098 17.2913H59.1108V19.4923H56.9098V17.2913ZM59.1108 17.2913H61.3118V19.4923H59.1108V17.2913ZM61.3118 17.2913H63.5128V19.4923H61.3118V17.2913ZM63.5128 17.2913H65.7139V19.4923H63.5128V17.2913ZM65.7139 17.2913H67.9149V19.4923H65.7139V17.2913ZM26.0954 19.4923H28.2964V21.6933H26.0954V19.4923ZM32.6985 19.4923H34.8995V21.6933H32.6985V19.4923ZM37.1005 19.4923H39.3015V21.6933H37.1005V19.4923ZM41.5026 19.4923H43.7036V21.6933H41.5026V19.4923ZM43.7036 19.4923H45.9046V21.6933H43.7036V19.4923ZM45.9046 19.4923H48.1056V21.6933H45.9046V19.4923ZM6.28613 21.6933H8.48716V23.8944H6.28613V21.6933ZM8.48716 21.6933H10.6882V23.8944H8.48716V21.6933ZM10.6882 21.6933H12.8892V23.8944H10.6882V21.6933ZM15.0902 21.6933H17.2913V23.8944H15.0902V21.6933ZM17.2913 21.6933H19.4923V23.8944H17.2913V21.6933ZM23.8944 21.6933H26.0954V23.8944H23.8944V21.6933ZM26.0954 21.6933H28.2964V23.8944H26.0954V21.6933ZM32.6985 21.6933H34.8995V23.8944H32.6985V21.6933ZM34.8995 21.6933H37.1005V23.8944H34.8995V21.6933ZM41.5026 21.6933H43.7036V23.8944H41.5026V21.6933ZM43.7036 21.6933H45.9046V23.8944H43.7036V21.6933ZM61.3118 21.6933H63.5128V23.8944H61.3118V21.6933ZM63.5128 21.6933H65.7139V23.8944H63.5128V21.6933ZM10.6882 23.8944H12.8892V26.0954H10.6882V23.8944ZM19.4923 23.8944H21.6933V26.0954H19.4923V23.8944ZM26.0954 23.8944H28.2964V26.0954H26.0954V23.8944ZM28.2964 23.8944H30.4974V26.0954H28.2964V23.8944ZM30.4974 23.8944H32.6985V26.0954H30.4974V23.8944ZM34.8995 23.8944H37.1005V26.0954H34.8995V23.8944ZM37.1005 23.8944H39.3015V26.0954H37.1005V23.8944ZM41.5026 23.8944H43.7036V26.0954H41.5026V23.8944ZM43.7036 23.8944H45.9046V26.0954H43.7036V23.8944ZM45.9046 23.8944H48.1056V26.0954H45.9046V23.8944ZM48.1056 23.8944H50.3067V26.0954H48.1056V23.8944ZM50.3067 23.8944H52.5077V26.0954H50.3067V23.8944ZM52.5077 23.8944H54.7087V26.0954H52.5077V23.8944ZM54.7087 23.8944H56.9098V26.0954H54.7087V23.8944ZM56.9098 23.8944H59.1108V26.0954H56.9098V23.8944ZM59.1108 23.8944H61.3118V26.0954H59.1108V23.8944ZM61.3118 23.8944H63.5128V26.0954H61.3118V23.8944ZM65.7139 23.8944H67.9149V26.0954H65.7139V23.8944ZM6.28613 26.0954H8.48716V28.2964H6.28613V26.0954ZM10.6882 26.0954H12.8892V28.2964H10.6882V26.0954ZM12.8892 26.0954H15.0902V28.2964H12.8892V26.0954ZM17.2913 26.0954H19.4923V28.2964H17.2913V26.0954ZM19.4923 26.0954H21.6933V28.2964H19.4923V26.0954ZM30.4974 26.0954H32.6985V28.2964H30.4974V26.0954ZM37.1005 26.0954H39.3015V28.2964H37.1005V26.0954ZM48.1056 26.0954H50.3067V28.2964H48.1056V26.0954ZM52.5077 26.0954H54.7087V28.2964H52.5077V26.0954ZM56.9098 26.0954H59.1108V28.2964H56.9098V26.0954ZM59.1108 26.0954H61.3118V28.2964H59.1108V26.0954ZM63.5128 26.0954H65.7139V28.2964H63.5128V26.0954ZM6.28613 28.2964H8.48716V30.4974H6.28613V28.2964ZM10.6882 28.2964H12.8892V30.4974H10.6882V28.2964ZM15.0902 28.2964H17.2913V30.4974H15.0902V28.2964ZM26.0954 28.2964H28.2964V30.4974H26.0954V28.2964ZM30.4974 28.2964H32.6985V30.4974H30.4974V28.2964ZM32.6985 28.2964H34.8995V30.4974H32.6985V28.2964ZM34.8995 28.2964H37.1005V30.4974H34.8995V28.2964ZM37.1005 28.2964H39.3015V30.4974H37.1005V28.2964ZM43.7036 28.2964H45.9046V30.4974H43.7036V28.2964ZM45.9046 28.2964H48.1056V30.4974H45.9046V28.2964ZM48.1056 28.2964H50.3067V30.4974H48.1056V28.2964ZM65.7139 28.2964H67.9149V30.4974H65.7139V28.2964ZM4.08511 30.4974H6.28613V32.6985H4.08511V30.4974ZM8.48716 30.4974H10.6882V32.6985H8.48716V30.4974ZM12.8892 30.4974H15.0902V32.6985H12.8892V30.4974ZM15.0902 30.4974H17.2913V32.6985H15.0902V30.4974ZM17.2913 30.4974H19.4923V32.6985H17.2913V30.4974ZM28.2964 30.4974H30.4974V32.6985H28.2964V30.4974ZM32.6985 30.4974H34.8995V32.6985H32.6985V30.4974ZM37.1005 30.4974H39.3015V32.6985H37.1005V30.4974ZM41.5026 30.4974H43.7036V32.6985H41.5026V30.4974ZM50.3067 30.4974H52.5077V32.6985H50.3067V30.4974ZM54.7087 30.4974H56.9098V32.6985H54.7087V30.4974ZM59.1108 30.4974H61.3118V32.6985H59.1108V30.4974ZM61.3118 30.4974H63.5128V32.6985H61.3118V30.4974ZM63.5128 30.4974H65.7139V32.6985H63.5128V30.4974ZM65.7139 30.4974H67.9149V32.6985H65.7139V30.4974ZM6.28613 32.6985H8.48716V34.8995H6.28613V32.6985ZM8.48716 32.6985H10.6882V34.8995H8.48716V32.6985ZM15.0902 32.6985H17.2913V34.8995H15.0902V32.6985ZM19.4923 32.6985H21.6933V34.8995H19.4923V32.6985ZM26.0954 32.6985H28.2964V34.8995H26.0954V32.6985ZM28.2964 32.6985H30.4974V34.8995H28.2964V32.6985ZM30.4974 32.6985H32.6985V34.8995H30.4974V32.6985ZM32.6985 32.6985H34.8995V34.8995H32.6985V32.6985ZM34.8995 32.6985H37.1005V34.8995H34.8995V32.6985ZM37.1005 32.6985H39.3015V34.8995H37.1005V32.6985ZM39.3015 32.6985H41.5026V34.8995H39.3015V32.6985ZM43.7036 32.6985H45.9046V34.8995H43.7036V32.6985ZM45.9046 32.6985H48.1056V34.8995H45.9046V32.6985ZM52.5077 32.6985H54.7087V34.8995H52.5077V32.6985ZM54.7087 32.6985H56.9098V34.8995H54.7087V32.6985ZM59.1108 32.6985H61.3118V34.8995H59.1108V32.6985ZM61.3118 32.6985H63.5128V34.8995H61.3118V32.6985ZM65.7139 32.6985H67.9149V34.8995H65.7139V32.6985ZM6.28613 34.8995H8.48716V37.1005H6.28613V34.8995ZM8.48716 34.8995H10.6882V37.1005H8.48716V34.8995ZM17.2913 34.8995H19.4923V37.1005H17.2913V34.8995ZM19.4923 34.8995H21.6933V37.1005H19.4923V34.8995ZM21.6933 34.8995H23.8944V37.1005H21.6933V34.8995ZM26.0954 34.8995H28.2964V37.1005H26.0954V34.8995ZM32.6985 34.8995H34.8995V37.1005H32.6985V34.8995ZM34.8995 34.8995H37.1005V37.1005H34.8995V34.8995ZM37.1005 34.8995H39.3015V37.1005H37.1005V34.8995ZM43.7036 34.8995H45.9046V37.1005H43.7036V34.8995ZM45.9046 34.8995H48.1056V37.1005H45.9046V34.8995ZM48.1056 34.8995H50.3067V37.1005H48.1056V34.8995ZM50.3067 34.8995H52.5077V37.1005H50.3067V34.8995ZM54.7087 34.8995H56.9098V37.1005H54.7087V34.8995ZM56.9098 34.8995H59.1108V37.1005H56.9098V34.8995ZM59.1108 34.8995H61.3118V37.1005H59.1108V34.8995ZM65.7139 34.8995H67.9149V37.1005H65.7139V34.8995ZM4.08511 37.1005H6.28613V39.3015H4.08511V37.1005ZM6.28613 37.1005H8.48716V39.3015H6.28613V37.1005ZM8.48716 37.1005H10.6882V39.3015H8.48716V37.1005ZM10.6882 37.1005H12.8892V39.3015H10.6882V37.1005ZM12.8892 37.1005H15.0902V39.3015H12.8892V37.1005ZM15.0902 37.1005H17.2913V39.3015H15.0902V37.1005ZM19.4923 37.1005H21.6933V39.3015H19.4923V37.1005ZM28.2964 37.1005H30.4974V39.3015H28.2964V37.1005ZM30.4974 37.1005H32.6985V39.3015H30.4974V37.1005ZM43.7036 37.1005H45.9046V39.3015H43.7036V37.1005ZM45.9046 37.1005H48.1056V39.3015H45.9046V37.1005ZM52.5077 37.1005H54.7087V39.3015H52.5077V37.1005ZM56.9098 37.1005H59.1108V39.3015H56.9098V37.1005ZM59.1108 37.1005H61.3118V39.3015H59.1108V37.1005ZM8.48716 39.3015H10.6882V41.5026H8.48716V39.3015ZM17.2913 39.3015H19.4923V41.5026H17.2913V39.3015ZM26.0954 39.3015H28.2964V41.5026H26.0954V39.3015ZM28.2964 39.3015H30.4974V41.5026H28.2964V39.3015ZM30.4974 39.3015H32.6985V41.5026H30.4974V39.3015ZM32.6985 39.3015H34.8995V41.5026H32.6985V39.3015ZM34.8995 39.3015H37.1005V41.5026H34.8995V39.3015ZM37.1005 39.3015H39.3015V41.5026H37.1005V39.3015ZM43.7036 39.3015H45.9046V41.5026H43.7036V39.3015ZM50.3067 39.3015H52.5077V41.5026H50.3067V39.3015ZM54.7087 39.3015H56.9098V41.5026H54.7087V39.3015ZM56.9098 39.3015H59.1108V41.5026H56.9098V39.3015ZM59.1108 39.3015H61.3118V41.5026H59.1108V39.3015ZM63.5128 39.3015H65.7139V41.5026H63.5128V39.3015ZM6.28613 41.5026H8.48716V43.7036H6.28613V41.5026ZM8.48716 41.5026H10.6882V43.7036H8.48716V41.5026ZM10.6882 41.5026H12.8892V43.7036H10.6882V41.5026ZM19.4923 41.5026H21.6933V43.7036H19.4923V41.5026ZM21.6933 41.5026H23.8944V43.7036H21.6933V41.5026ZM23.8944 41.5026H26.0954V43.7036H23.8944V41.5026ZM32.6985 41.5026H34.8995V43.7036H32.6985V41.5026ZM39.3015 41.5026H41.5026V43.7036H39.3015V41.5026ZM48.1056 41.5026H50.3067V43.7036H48.1056V41.5026ZM54.7087 41.5026H56.9098V43.7036H54.7087V41.5026ZM59.1108 41.5026H61.3118V43.7036H59.1108V41.5026ZM4.08511 43.7036H6.28613V45.9046H4.08511V43.7036ZM10.6882 43.7036H12.8892V45.9046H10.6882V43.7036ZM17.2913 43.7036H19.4923V45.9046H17.2913V43.7036ZM26.0954 43.7036H28.2964V45.9046H26.0954V43.7036ZM28.2964 43.7036H30.4974V45.9046H28.2964V43.7036ZM30.4974 43.7036H32.6985V45.9046H30.4974V43.7036ZM34.8995 43.7036H37.1005V45.9046H34.8995V43.7036ZM37.1005 43.7036H39.3015V45.9046H37.1005V43.7036ZM39.3015 43.7036H41.5026V45.9046H39.3015V43.7036ZM48.1056 43.7036H50.3067V45.9046H48.1056V43.7036ZM52.5077 43.7036H54.7087V45.9046H52.5077V43.7036ZM54.7087 43.7036H56.9098V45.9046H54.7087V43.7036ZM61.3118 43.7036H63.5128V45.9046H61.3118V43.7036ZM10.6882 45.9046H12.8892V48.1056H10.6882V45.9046ZM21.6933 45.9046H23.8944V48.1056H21.6933V45.9046ZM30.4974 45.9046H32.6985V48.1056H30.4974V45.9046ZM32.6985 45.9046H34.8995V48.1056H32.6985V45.9046ZM39.3015 45.9046H41.5026V48.1056H39.3015V45.9046ZM41.5026 45.9046H43.7036V48.1056H41.5026V45.9046ZM45.9046 45.9046H48.1056V48.1056H45.9046V45.9046ZM48.1056 45.9046H50.3067V48.1056H48.1056V45.9046ZM50.3067 45.9046H52.5077V48.1056H50.3067V45.9046ZM52.5077 45.9046H54.7087V48.1056H52.5077V45.9046ZM56.9098 45.9046H59.1108V48.1056H56.9098V45.9046ZM59.1108 45.9046H61.3118V48.1056H59.1108V45.9046ZM61.3118 45.9046H63.5128V48.1056H61.3118V45.9046ZM6.28613 48.1056H8.48716V50.3067H6.28613V48.1056ZM8.48716 48.1056H10.6882V50.3067H8.48716V48.1056ZM17.2913 48.1056H19.4923V50.3067H17.2913V48.1056ZM19.4923 48.1056H21.6933V50.3067H19.4923V48.1056ZM21.6933 48.1056H23.8944V50.3067H21.6933V48.1056ZM23.8944 48.1056H26.0954V50.3067H23.8944V48.1056ZM30.4974 48.1056H32.6985V50.3067H30.4974V48.1056ZM39.3015 48.1056H41.5026V50.3067H39.3015V48.1056ZM41.5026 48.1056H43.7036V50.3067H41.5026V48.1056ZM43.7036 48.1056H45.9046V50.3067H43.7036V48.1056ZM48.1056 48.1056H50.3067V50.3067H48.1056V48.1056ZM50.3067 48.1056H52.5077V50.3067H50.3067V48.1056ZM52.5077 48.1056H54.7087V50.3067H52.5077V48.1056ZM54.7087 48.1056H56.9098V50.3067H54.7087V48.1056ZM56.9098 48.1056H59.1108V50.3067H56.9098V48.1056ZM61.3118 48.1056H63.5128V50.3067H61.3118V48.1056ZM65.7139 48.1056H67.9149V50.3067H65.7139V48.1056ZM21.6933 50.3067H23.8944V52.5077H21.6933V50.3067ZM28.2964 50.3067H30.4974V52.5077H28.2964V50.3067ZM30.4974 50.3067H32.6985V52.5077H30.4974V50.3067ZM32.6985 50.3067H34.8995V52.5077H32.6985V50.3067ZM39.3015 50.3067H41.5026V52.5077H39.3015V50.3067ZM41.5026 50.3067H43.7036V52.5077H41.5026V50.3067ZM43.7036 50.3067H45.9046V52.5077H43.7036V50.3067ZM48.1056 50.3067H50.3067V52.5077H48.1056V50.3067ZM56.9098 50.3067H59.1108V52.5077H56.9098V50.3067ZM59.1108 50.3067H61.3118V52.5077H59.1108V50.3067ZM65.7139 50.3067H67.9149V52.5077H65.7139V50.3067ZM4.08511 52.5077H6.28613V54.7087H4.08511V52.5077ZM6.28613 52.5077H8.48716V54.7087H6.28613V52.5077ZM8.48716 52.5077H10.6882V54.7087H8.48716V52.5077ZM10.6882 52.5077H12.8892V54.7087H10.6882V52.5077ZM12.8892 52.5077H15.0902V54.7087H12.8892V52.5077ZM15.0902 52.5077H17.2913V54.7087H15.0902V52.5077ZM17.2913 52.5077H19.4923V54.7087H17.2913V52.5077ZM26.0954 52.5077H28.2964V54.7087H26.0954V52.5077ZM28.2964 52.5077H30.4974V54.7087H28.2964V52.5077ZM30.4974 52.5077H32.6985V54.7087H30.4974V52.5077ZM34.8995 52.5077H37.1005V54.7087H34.8995V52.5077ZM41.5026 52.5077H43.7036V54.7087H41.5026V52.5077ZM45.9046 52.5077H48.1056V54.7087H45.9046V52.5077ZM48.1056 52.5077H50.3067V54.7087H48.1056V52.5077ZM52.5077 52.5077H54.7087V54.7087H52.5077V52.5077ZM56.9098 52.5077H59.1108V54.7087H56.9098V52.5077ZM61.3118 52.5077H63.5128V54.7087H61.3118V52.5077ZM63.5128 52.5077H65.7139V54.7087H63.5128V52.5077ZM4.08511 54.7087H6.28613V56.9098H4.08511V54.7087ZM17.2913 54.7087H19.4923V56.9098H17.2913V54.7087ZM21.6933 54.7087H23.8944V56.9098H21.6933V54.7087ZM23.8944 54.7087H26.0954V56.9098H23.8944V54.7087ZM26.0954 54.7087H28.2964V56.9098H26.0954V54.7087ZM32.6985 54.7087H34.8995V56.9098H32.6985V54.7087ZM37.1005 54.7087H39.3015V56.9098H37.1005V54.7087ZM43.7036 54.7087H45.9046V56.9098H43.7036V54.7087ZM48.1056 54.7087H50.3067V56.9098H48.1056V54.7087ZM56.9098 54.7087H59.1108V56.9098H56.9098V54.7087ZM63.5128 54.7087H65.7139V56.9098H63.5128V54.7087ZM65.7139 54.7087H67.9149V56.9098H65.7139V54.7087ZM4.08511 56.9098H6.28613V59.1108H4.08511V56.9098ZM8.48716 56.9098H10.6882V59.1108H8.48716V56.9098ZM10.6882 56.9098H12.8892V59.1108H10.6882V56.9098ZM12.8892 56.9098H15.0902V59.1108H12.8892V56.9098ZM17.2913 56.9098H19.4923V59.1108H17.2913V56.9098ZM23.8944 56.9098H26.0954V59.1108H23.8944V56.9098ZM28.2964 56.9098H30.4974V59.1108H28.2964V56.9098ZM30.4974 56.9098H32.6985V59.1108H30.4974V56.9098ZM34.8995 56.9098H37.1005V59.1108H34.8995V56.9098ZM41.5026 56.9098H43.7036V59.1108H41.5026V56.9098ZM48.1056 56.9098H50.3067V59.1108H48.1056V56.9098ZM50.3067 56.9098H52.5077V59.1108H50.3067V56.9098ZM52.5077 56.9098H54.7087V59.1108H52.5077V56.9098ZM54.7087 56.9098H56.9098V59.1108H54.7087V56.9098ZM56.9098 56.9098H59.1108V59.1108H56.9098V56.9098ZM59.1108 56.9098H61.3118V59.1108H59.1108V56.9098ZM61.3118 56.9098H63.5128V59.1108H61.3118V56.9098ZM4.08511 59.1108H6.28613V61.3118H4.08511V59.1108ZM8.48716 59.1108H10.6882V61.3118H8.48716V59.1108ZM10.6882 59.1108H12.8892V61.3118H10.6882V59.1108ZM12.8892 59.1108H15.0902V61.3118H12.8892V59.1108ZM17.2913 59.1108H19.4923V61.3118H17.2913V59.1108ZM21.6933 59.1108H23.8944V61.3118H21.6933V59.1108ZM26.0954 59.1108H28.2964V61.3118H26.0954V59.1108ZM28.2964 59.1108H30.4974V61.3118H28.2964V59.1108ZM32.6985 59.1108H34.8995V61.3118H32.6985V59.1108ZM34.8995 59.1108H37.1005V61.3118H34.8995V59.1108ZM37.1005 59.1108H39.3015V61.3118H37.1005V59.1108ZM39.3015 59.1108H41.5026V61.3118H39.3015V59.1108ZM41.5026 59.1108H43.7036V61.3118H41.5026V59.1108ZM45.9046 59.1108H48.1056V61.3118H45.9046V59.1108ZM56.9098 59.1108H59.1108V61.3118H56.9098V59.1108ZM61.3118 59.1108H63.5128V61.3118H61.3118V59.1108ZM65.7139 59.1108H67.9149V61.3118H65.7139V59.1108ZM4.08511 61.3118H6.28613V63.5128H4.08511V61.3118ZM8.48716 61.3118H10.6882V63.5128H8.48716V61.3118ZM10.6882 61.3118H12.8892V63.5128H10.6882V61.3118ZM12.8892 61.3118H15.0902V63.5128H12.8892V61.3118ZM17.2913 61.3118H19.4923V63.5128H17.2913V61.3118ZM21.6933 61.3118H23.8944V63.5128H21.6933V61.3118ZM26.0954 61.3118H28.2964V63.5128H26.0954V61.3118ZM28.2964 61.3118H30.4974V63.5128H28.2964V61.3118ZM32.6985 61.3118H34.8995V63.5128H32.6985V61.3118ZM34.8995 61.3118H37.1005V63.5128H34.8995V61.3118ZM48.1056 61.3118H50.3067V63.5128H48.1056V61.3118ZM54.7087 61.3118H56.9098V63.5128H54.7087V61.3118ZM61.3118 61.3118H63.5128V63.5128H61.3118V61.3118ZM65.7139 61.3118H67.9149V63.5128H65.7139V61.3118ZM4.08511 63.5128H6.28613V65.7139H4.08511V63.5128ZM17.2913 63.5128H19.4923V65.7139H17.2913V63.5128ZM21.6933 63.5128H23.8944V65.7139H21.6933V63.5128ZM30.4974 63.5128H32.6985V65.7139H30.4974V63.5128ZM32.6985 63.5128H34.8995V65.7139H32.6985V63.5128ZM34.8995 63.5128H37.1005V65.7139H34.8995V63.5128ZM37.1005 63.5128H39.3015V65.7139H37.1005V63.5128ZM39.3015 63.5128H41.5026V65.7139H39.3015V63.5128ZM48.1056 63.5128H50.3067V65.7139H48.1056V63.5128ZM50.3067 63.5128H52.5077V65.7139H50.3067V63.5128ZM56.9098 63.5128H59.1108V65.7139H56.9098V63.5128ZM63.5128 63.5128H65.7139V65.7139H63.5128V63.5128ZM4.08511 65.7139H6.28613V67.9149H4.08511V65.7139ZM6.28613 65.7139H8.48716V67.9149H6.28613V65.7139ZM8.48716 65.7139H10.6882V67.9149H8.48716V65.7139ZM10.6882 65.7139H12.8892V67.9149H10.6882V65.7139ZM12.8892 65.7139H15.0902V67.9149H12.8892V65.7139ZM15.0902 65.7139H17.2913V67.9149H15.0902V65.7139ZM17.2913 65.7139H19.4923V67.9149H17.2913V65.7139ZM23.8944 65.7139H26.0954V67.9149H23.8944V65.7139ZM26.0954 65.7139H28.2964V67.9149H26.0954V65.7139ZM30.4974 65.7139H32.6985V67.9149H30.4974V65.7139ZM37.1005 65.7139H39.3015V67.9149H37.1005V65.7139ZM45.9046 65.7139H48.1056V67.9149H45.9046V65.7139ZM48.1056 65.7139H50.3067V67.9149H48.1056V65.7139ZM50.3067 65.7139H52.5077V67.9149H50.3067V65.7139ZM52.5077 65.7139H54.7087V67.9149H52.5077V65.7139ZM54.7087 65.7139H56.9098V67.9149H54.7087V65.7139ZM63.5128 65.7139H65.7139V67.9149H63.5128V65.7139Z" fill="var(--fill-0, black)"/>
</g>
</svg>
