<svg preserveAspectRatio="xMidYMid meet" overflow="visible" style="display: block;" viewBox="0 0 1581 949" fill="none" xmlns="http://www.w3.org/2000/svg">
<path id="path1409" d="M91.8741 946.607C44.5682 935.091 13.9991 892.159 3.02296 821.821C-1.05971 795.659 -0.995587 729.357 3.14614 694.37C14.7347 596.48 41.7991 504.178 83.3941 420.687C137.223 312.639 211.373 230.404 273.544 209.802C301.211 200.634 320.726 200.791 341.043 210.343C368.796 223.392 383.925 253.666 387.505 303.317C388.867 322.202 386.165 352.94 381.703 369.328C376.448 388.63 362.042 416.595 349.038 432.74C331.526 454.482 305.713 472.355 289.108 474.236C283.023 474.925 281.464 474.381 277.174 470.071C269.855 462.717 267.869 453.293 270.158 436.776C271.195 429.295 273.948 417.638 276.274 410.873C299.488 343.385 282.229 282.21 244.684 298.896C212.879 313.031 173.119 383.642 148.092 470.434C132.08 525.964 122.245 582.419 118.695 639.177C113.026 729.81 131.514 788.155 171.808 806.794C184.16 812.507 205.795 813.788 222.723 809.807C236.652 806.532 257.835 796.76 272.168 786.997C282.465 779.983 314.175 750.437 316.863 745.352C317.596 743.967 317.174 737.57 315.927 731.136C309.77 699.378 311.7 661.044 322.056 609.365C343.761 501.062 396.989 412.454 461.602 377.066C490.073 361.473 516.033 363.142 536.14 381.859C565.063 408.783 576.924 461.878 568.819 528.139C552.966 657.736 497.793 763.568 427.491 799.232C398.638 813.869 372.773 813.986 351.919 799.573C347.225 796.329 342.744 794.073 341.96 794.559C341.176 795.046 335.437 802.669 329.207 811.5C277.862 884.277 212.123 933.367 148.263 946.62C132.951 949.798 104.956 949.794 91.8741 946.607ZM445.223 716.157C464.422 703.049 481.283 657.031 491.781 589.087C495.032 568.045 494.589 520.075 490.987 503.17C485.681 478.267 474.423 458.858 461.256 451.913C453.698 447.927 451.942 448.963 445.933 460.952C424.574 503.565 408.413 583.543 408.39 646.742C408.374 682.954 412.94 703.54 423.282 713.932C430.855 721.539 436.5 722.112 445.223 716.157ZM650.842 710.27C622.742 705.248 601.919 682.651 592.96 647.456C577.33 586.055 594.166 485.189 632.994 407.599C665.617 342.409 711.4 298.377 757.206 288.138C798.307 278.951 821.073 300.375 821.286 348.439C821.422 379.102 814.84 405.602 799.834 434.803C774.068 484.942 722.14 501.026 726.672 457.464C727.633 448.223 729.825 441.861 743.468 408.706C750.794 390.904 751.948 378.331 746.782 372.596C738.622 363.537 721.662 374.439 710.455 395.948C693.76 427.99 680.604 485.375 678.37 535.898C676.352 581.536 684.958 608.349 704.905 618.574C710.634 621.51 713.877 621.946 725.434 621.337C753.672 619.848 776.408 602.725 802.068 563.623C814.882 544.096 815.575 542.55 817.429 529.364C827.239 459.589 852.329 308.516 867.408 228.422C881.994 150.948 896.424 88.8138 903.883 71.3619C916.761 41.2288 963.428 0 984.657 0C992.656 0 999.668 6.78891 1001.22 16.0381C1002.51 23.6801 1002.14 25.4922 980.557 116.982C942.183 279.667 915.619 415.446 923.848 406.846C924.684 405.973 932.061 392.098 940.242 376.013C989.139 279.878 1042.33 212.321 1069.18 212.254C1078.02 212.233 1086.79 217.232 1096.34 227.73C1107.82 240.347 1115.4 255.3 1116.5 267.462C1117.26 275.835 1116.73 278.649 1112.92 286.473C1107.42 297.765 1101.84 302.252 1075.35 316.698C1052.8 328.999 1030.75 343.204 1023.18 350.312L1018.41 354.791L1019.55 373.34C1023.85 442.845 1039.75 500.325 1060.25 520.437C1065.26 525.35 1068.42 526.986 1074.19 527.639C1081.13 528.424 1082.18 527.997 1089.08 521.605C1093.17 517.822 1098.99 510.025 1102.02 504.278C1105.04 498.532 1109.2 491.136 1111.24 487.842C1113.35 484.451 1115.46 477.566 1116.1 471.966C1119.42 443.077 1132.4 368.821 1145.99 301.031C1150.11 280.472 1153.08 262.987 1152.58 262.176C1152.08 261.365 1147.57 260.702 1142.57 260.702C1120.06 260.702 1111.85 248.201 1124.84 233.686C1128.27 229.851 1137.81 222.367 1146.05 217.054C1154.28 211.741 1162.17 206.389 1163.57 205.16C1165.04 203.876 1168.45 192.309 1171.6 177.92C1182.13 129.836 1193.21 88.4392 1197.56 80.9894C1208.05 63.003 1229.16 43.4458 1248.95 33.389C1263.09 26.2029 1270.44 25.1729 1278.33 29.2738C1291.55 36.1402 1291.18 49.137 1275.95 111.968C1270.02 136.42 1265.85 156.907 1266.63 157.712C1267.42 158.533 1277.36 154.784 1289.38 149.125C1307.73 140.487 1320.94 135.409 1325.15 135.374C1328.48 135.348 1331.51 141.317 1331.51 147.931C1331.51 165.334 1314.09 206.673 1302.57 216.62C1293.95 224.062 1276.25 232.613 1259.39 237.488C1249.96 240.215 1245.92 242.226 1244.87 244.717C1242.46 250.398 1222.24 348.124 1217.7 376.013C1210.08 422.816 1208.15 457.309 1211.92 479.081C1216.73 506.856 1234.66 511.979 1255.14 491.431L1264.43 482.105L1264.41 453.709C1264.36 386.034 1284.03 314.317 1315.78 266.365C1348.2 217.413 1396.34 189.939 1437.18 197.085C1454 200.028 1464.91 206.748 1470.59 217.67C1473.71 223.67 1476.21 223.468 1485.96 216.428C1506.59 201.536 1529.28 196.856 1538.67 205.554C1549.4 215.493 1550.05 225.666 1541.8 254.302C1538.54 265.635 1533.35 283.714 1530.28 294.479C1508.57 370.489 1498.93 460.855 1510.2 482.737C1513.76 489.654 1520.83 492.203 1527.98 489.145C1534.72 486.261 1538.56 482.239 1548.99 467.117C1558.68 453.055 1564.12 448.699 1570.1 450.207C1575.96 451.684 1580.99 460.412 1581 469.104C1581.02 490.893 1557.24 528.971 1533.44 545.279C1518.39 555.584 1505.37 560.137 1488.07 561.143C1463.1 562.596 1445.77 556.202 1431.16 540.141C1426.67 535.203 1422.99 530.471 1422.99 529.626C1422.99 526.187 1418.16 528.539 1408.78 536.546C1388.95 553.475 1369.05 562.998 1346.48 566.367C1319.23 570.434 1297.74 560.805 1282.98 537.907C1280.09 533.426 1277.45 529.76 1277.13 529.76C1276.8 529.76 1268.88 537.473 1259.53 546.9C1233.95 572.678 1214.23 582.616 1185.04 584.444C1156.91 586.206 1136.32 575.109 1124.56 551.849C1123.04 548.831 1121.07 546.81 1120.19 547.356C1119.31 547.903 1115.6 552.769 1111.95 558.169C1096.66 580.796 1073.91 600.061 1052.57 608.453C1045.07 611.406 1039.41 612.275 1027.12 612.366C1012.61 612.473 1010.59 612.079 1002.44 607.54C977.095 593.437 959.909 558.906 945.011 492.159C941.122 474.732 938.719 467.092 937.13 467.092C934.356 467.092 924.809 489.652 915.869 517.331C909.244 537.845 903.848 562.149 900.812 585.155C899.884 592.184 897.61 601.961 895.76 606.88C891.589 617.966 880.207 633.37 869.807 642.005C854.161 654.995 823.713 669.133 813.533 668.135C806.814 667.477 804.456 660.819 804.328 642.146C804.276 634.563 803.79 628.359 803.248 628.359C802.705 628.359 795.115 635.91 786.381 645.138C765.849 666.835 742.354 684.533 718.876 695.989C692.512 708.854 669.705 713.641 650.842 710.27ZM1382.24 489.871C1391.05 485.831 1400 476.307 1406.51 464.044C1410.61 456.312 1412.14 450.797 1413.26 439.681C1414.06 431.778 1418.09 406.512 1422.23 383.533C1426.36 360.555 1430.52 334.189 1431.45 324.943C1434.15 298.254 1429.98 274.373 1421.49 267.858C1417.86 265.076 1407.18 265.203 1401.61 268.094C1384.84 276.808 1368.49 308.806 1359.23 351.012C1352.74 380.612 1350.77 399.325 1350.7 431.997C1350.62 467.056 1352.92 478.076 1362.25 487.447C1368.54 493.769 1372.65 494.267 1382.24 489.871Z" fill="var(--fill-0, #F8CD04)"/>
</svg>
